<svg width="35" height="32" viewBox="0 0 35 32" fill="none" xmlns="http://www.w3.org/2000/svg">
<path d="M30.2021 25.1348L25.2438 20.7176C26.8435 18.8966 27.7116 16.6479 27.7083 14.3329C27.7083 12.2713 27.0241 10.2559 25.7422 8.54171C24.4602 6.82749 22.6381 5.49143 20.5063 4.70246C18.3745 3.9135 16.0287 3.70707 13.7656 4.10928C11.5025 4.51149 9.42371 5.50428 7.79209 6.96209C6.16048 8.41991 5.04934 10.2773 4.59918 12.2993C4.14902 14.3214 4.38005 16.4173 5.26308 18.322C6.1461 20.2268 7.64145 21.8548 9.56002 23.0002C11.4786 24.1456 13.7342 24.7569 16.0417 24.7569C18.6326 24.7598 21.1494 23.9842 23.1875 22.5549L28.1313 26.985C28.2668 27.1072 28.4281 27.2041 28.6058 27.2703C28.7835 27.3364 28.9742 27.3705 29.1667 27.3705C29.3592 27.3705 29.5498 27.3364 29.7275 27.2703C29.9052 27.2041 30.0665 27.1072 30.2021 26.985C30.3388 26.8639 30.4473 26.7198 30.5213 26.561C30.5953 26.4022 30.6335 26.2319 30.6335 26.0599C30.6335 25.8879 30.5953 25.7176 30.5213 25.5588C30.4473 25.4 30.3388 25.2559 30.2021 25.1348V25.1348ZM7.29167 14.3329C7.29167 12.7867 7.80485 11.2752 8.76631 9.98952C9.72778 8.70386 11.0943 7.70181 12.6932 7.11008C14.292 6.51836 16.0514 6.36354 17.7487 6.6652C19.446 6.96686 21.0051 7.71145 22.2289 8.80481C23.4526 9.89817 24.2859 11.2912 24.6235 12.8077C24.9612 14.3243 24.7879 15.8962 24.1256 17.3248C23.4634 18.7533 22.3418 19.9743 20.9029 20.8334C19.464 21.6924 17.7723 22.1509 16.0417 22.1509C13.721 22.1509 11.4954 21.3272 9.85449 19.8611C8.21354 18.3949 7.29167 16.4064 7.29167 14.3329Z" fill="#231F20"/>
</svg>
